HIERARCHY
ROOT Hips
{
	OFFSET 0.000000 83.214638 0.000000
	CHANNELS 6 Xposition Yposition Zposition Xrotation Yrotation Zrotation
	JOINT Pelvis
	{
		OFFSET 0.000000 0.000000 0.000000
		CHANNELS 3 Xrotation Yrotation Zrotation
		JOINT LeftUpLeg
		{
			OFFSET 8.479700 -4.795502 -0.379100
			CHANNELS 3 Xrotation Yrotation Zrotation
			JOINT LeftLeg
			{
				OFFSET 0.024144 -32.555107 0.112900
				CHANNELS 3 Xrotation Yrotation Zrotation
				JOINT LeftFoot
				{
					OFFSET -0.024144 -32.638630 -3.012600
					CHANNELS 3 Xrotation Yrotation Zrotation
					JOINT LeftToeBase
					{
						OFFSET 0.970200 -13.225400 11.864200
						CHANNELS 3 Xrotation Yrotation Zrotation
						End Site
						{
							OFFSET 0.000000 12.319262 0.000000
						}
					}
					JOINT LFootTongue
					{
						OFFSET 1.142400 -1.059800 6.665200
						CHANNELS 3 Xrotation Yrotation Zrotation
						End Site
						{
							OFFSET 0.000000 12.319262 0.000000
						}
					}
				}
				JOINT LeftPantLeg
				{
					OFFSET 0.918482 -16.533964 -2.284700
					CHANNELS 3 Xrotation Yrotation Zrotation
					End Site
					{
						OFFSET 0.350399 24.744368 0.000000
					}
				}
			}
		}
		JOINT RightUpLeg
		{
			OFFSET -8.479700 -4.795502 -0.379100
			CHANNELS 3 Xrotation Yrotation Zrotation
			JOINT RightLeg
			{
				OFFSET -0.023144 -32.555092 0.112900
				CHANNELS 3 Xrotation Yrotation Zrotation
				JOINT RightFoot
				{
					OFFSET 0.023144 -32.638641 -3.012700
					CHANNELS 3 Xrotation Yrotation Zrotation
					JOINT RightToeBase
					{
						OFFSET -0.970200 -13.225400 11.864200
						CHANNELS 3 Xrotation Yrotation Zrotation
						End Site
						{
							OFFSET 0.000000 12.319244 0.000000
						}
					}
					JOINT RFootTongue
					{
						OFFSET -1.142200 -1.059800 6.665200
						CHANNELS 3 Xrotation Yrotation Zrotation
						End Site
						{
							OFFSET 0.000000 12.319243 0.000000
						}
					}
				}
				JOINT RightPantLeg
				{
					OFFSET -0.919482 -16.533978 -2.284800
					CHANNELS 3 Xrotation Yrotation Zrotation
					End Site
					{
						OFFSET -0.350400 24.744419 0.000000
					}
				}
			}
		}
	}
	JOINT Spine
	{
		OFFSET 0.000000 7.722000 1.166200
		CHANNELS 3 Xrotation Yrotation Zrotation
		JOINT Spine1
		{
			OFFSET 0.000000 12.024101 0.248800
			CHANNELS 3 Xrotation Yrotation Zrotation
			JOINT Spine2
			{
				OFFSET 0.000000 11.502998 -0.491200
				CHANNELS 3 Xrotation Yrotation Zrotation
				JOINT Neck
				{
					OFFSET 0.000000 18.430702 -3.123100
					CHANNELS 3 Xrotation Yrotation Zrotation
					JOINT Head
					{
						OFFSET 0.000000 9.051102 1.034000
						CHANNELS 3 Xrotation Yrotation Zrotation
						JOINT HairB
						{
							OFFSET 0.208400 24.786102 24.822300
							CHANNELS 3 Xrotation Yrotation Zrotation
							End Site
							{
								OFFSET 0.000000 32.263779 0.000000
							}
						}
						JOINT HairA
						{
							OFFSET -7.081100 24.428299 23.196600
							CHANNELS 3 Xrotation Yrotation Zrotation
							End Site
							{
								OFFSET 0.000000 32.263779 0.000000
							}
						}
						JOINT Hat
						{
							OFFSET 16.728800 15.048294 -15.439601
							CHANNELS 3 Xrotation Yrotation Zrotation
							End Site
							{
								OFFSET 0.000000 32.263779 0.000000
							}
						}
					}
				}
				JOINT LeftShoulder
				{
					OFFSET 6.197800 13.665199 -4.064700
					CHANNELS 3 Xrotation Yrotation Zrotation
					JOINT LeftArm
					{
						OFFSET 7.778100 -0.187103 -1.709300
						CHANNELS 3 Xrotation Yrotation Zrotation
						JOINT LeftForeArm
						{
							OFFSET 22.049376 0.000000 0.000000
							CHANNELS 3 Xrotation Yrotation Zrotation
							JOINT LeftHand
							{
								OFFSET 23.009392 0.000000 0.000000
								CHANNELS 3 Xrotation Yrotation Zrotation
								JOINT LeftHandThumb1
								{
									OFFSET 3.507191 -2.063065 3.133727
									CHANNELS 3 Xrotation Yrotation Zrotation
									JOINT LeftHandThumb2
									{
										OFFSET 3.101337 -1.790558 1.790558
										CHANNELS 3 Xrotation Yrotation Zrotation
										JOINT LeftHandThumb3
										{
											OFFSET 3.058640 -1.765907 1.765906
											CHANNELS 3 Xrotation Yrotation Zrotation
											End Site
											{
												OFFSET -0.415260 3.926476 -0.049563
											}
										}
									}
								}
								JOINT LeftHandIndex1
								{
									OFFSET 11.334419 -0.901459 3.706815
									CHANNELS 3 Xrotation Yrotation Zrotation
									JOINT LeftHandIndex2
									{
										OFFSET 3.283112 0.000000 0.000000
										CHANNELS 3 Xrotation Yrotation Zrotation
										JOINT LeftHandIndex3
										{
											OFFSET 3.323853 0.000000 0.000000
											CHANNELS 3 Xrotation Yrotation Zrotation
											End Site
											{
												OFFSET -1.135597 3.097809 0.402452
											}
										}
									}
								}
								JOINT LeftHandMiddle1
								{
									OFFSET 11.335861 0.000000 0.000000
									CHANNELS 3 Xrotation Yrotation Zrotation
									JOINT LeftHandMiddle2
									{
										OFFSET 3.410492 0.000000 0.000000
										CHANNELS 3 Xrotation Yrotation Zrotation
										JOINT LeftHandMiddle3
										{
											OFFSET 3.312172 0.000000 0.000000
											CHANNELS 3 Xrotation Yrotation Zrotation
											End Site
											{
												OFFSET -1.150200 3.080154 0.400270
											}
										}
									}
								}
								JOINT LeftHandRing1
								{
									OFFSET 11.514786 -0.013176 -3.003090
									CHANNELS 3 Xrotation Yrotation Zrotation
									JOINT LeftHandRing2
									{
										OFFSET 3.053307 0.000000 0.000000
										CHANNELS 3 Xrotation Yrotation Zrotation
										JOINT LeftHandRing3
										{
											OFFSET 3.295807 0.000000 0.000000
											CHANNELS 3 Xrotation Yrotation Zrotation
											End Site
											{
												OFFSET -1.281006 3.013344 0.375733
											}
										}
									}
								}
								JOINT LeftHandPinky1
								{
									OFFSET 10.518692 -0.960396 -5.730441
									CHANNELS 3 Xrotation Yrotation Zrotation
									JOINT LeftHandPinky2
									{
										OFFSET 2.861649 0.000000 0.000000
										CHANNELS 3 Xrotation Yrotation Zrotation
										JOINT LeftHandPinky3
										{
											OFFSET 2.863380 0.000000 0.000000
											CHANNELS 3 Xrotation Yrotation Zrotation
											End Site
											{
												OFFSET -0.843597 2.711159 0.369971
											}
										}
									}
								}
							}
							JOINT LSleeve
							{
								OFFSET 6.676277 -0.344902 -1.011730
								CHANNELS 3 Xrotation Yrotation Zrotation
								End Site
								{
									OFFSET 0.000000 14.885353 0.000000
								}
							}
						}
					}
				}
				JOINT RightShoulder
				{
					OFFSET -6.197800 13.665199 -4.064700
					CHANNELS 3 Xrotation Yrotation Zrotation
					JOINT RightArm
					{
						OFFSET -7.778100 -0.187103 -1.709300
						CHANNELS 3 Xrotation Yrotation Zrotation
						JOINT RightForeArm
						{
							OFFSET -22.049376 0.000000 0.000000
							CHANNELS 3 Xrotation Yrotation Zrotation
							JOINT RightHand
							{
								OFFSET -23.009392 0.000000 0.000000
								CHANNELS 3 Xrotation Yrotation Zrotation
								JOINT RightHandThumb1
								{
									OFFSET -3.507191 -2.063065 3.133727
									CHANNELS 3 Xrotation Yrotation Zrotation
									JOINT RightHandThumb2
									{
										OFFSET -3.101337 -1.790558 1.790558
										CHANNELS 3 Xrotation Yrotation Zrotation
										JOINT RightHandThumb3
										{
											OFFSET -3.058640 -1.765907 1.765906
											CHANNELS 3 Xrotation Yrotation Zrotation
											End Site
											{
												OFFSET 0.415260 3.926476 -0.049563
											}
										}
									}
								}
								JOINT RightHandIndex1
								{
									OFFSET -11.334419 -0.901459 3.706815
									CHANNELS 3 Xrotation Yrotation Zrotation
									JOINT RightHandIndex2
									{
										OFFSET -3.283112 0.000000 0.000000
										CHANNELS 3 Xrotation Yrotation Zrotation
										JOINT RightHandIndex3
										{
											OFFSET -3.323853 0.000000 0.000000
											CHANNELS 3 Xrotation Yrotation Zrotation
											End Site
											{
												OFFSET 1.135597 3.097809 0.402452
											}
										}
									}
								}
								JOINT RightHandMiddle1
								{
									OFFSET -11.335861 0.000000 0.000000
									CHANNELS 3 Xrotation Yrotation Zrotation
									JOINT RightHandMiddle2
									{
										OFFSET -3.410492 0.000000 0.000000
										CHANNELS 3 Xrotation Yrotation Zrotation
										JOINT RightHandMiddle3
										{
											OFFSET -3.312172 0.000000 0.000000
											CHANNELS 3 Xrotation Yrotation Zrotation
											End Site
											{
												OFFSET 1.150200 3.080154 0.400270
											}
										}
									}
								}
								JOINT RightHandRing1
								{
									OFFSET -11.514786 -0.013176 -3.003090
									CHANNELS 3 Xrotation Yrotation Zrotation
									JOINT RightHandRing2
									{
										OFFSET -3.053307 0.000000 0.000000
										CHANNELS 3 Xrotation Yrotation Zrotation
										JOINT RightHandRing3
										{
											OFFSET -3.295807 0.000000 0.000000
											CHANNELS 3 Xrotation Yrotation Zrotation
											End Site
											{
												OFFSET 1.281006 3.013344 0.375733
											}
										}
									}
								}
								JOINT RightHandPinky1
								{
									OFFSET -10.518692 -0.960396 -5.730441
									CHANNELS 3 Xrotation Yrotation Zrotation
									JOINT RightHandPinky2
									{
										OFFSET -2.861649 0.000000 0.000000
										CHANNELS 3 Xrotation Yrotation Zrotation
										JOINT RightHandPinky3
										{
											OFFSET -2.863380 0.000000 0.000000
											CHANNELS 3 Xrotation Yrotation Zrotation
											End Site
											{
												OFFSET 0.843597 2.711159 0.369971
											}
										}
									}
								}
							}
							JOINT RSleeve
							{
								OFFSET -6.676277 -0.344902 -1.011730
								CHANNELS 3 Xrotation Yrotation Zrotation
								End Site
								{
									OFFSET 0.000000 14.885353 0.000000
								}
							}
						}
					}
				}
				JOINT Backpack
				{
					OFFSET 0.000000 -2.471497 36.677502
					CHANNELS 3 Xrotation Yrotation Zrotation
					End Site
					{
						OFFSET 0.000000 20.427315 0.000000
					}
				}
				JOINT Hood
				{
					OFFSET 0.000000 18.754097 -10.431000
					CHANNELS 3 Xrotation Yrotation Zrotation
					JOINT Hood1
					{
						OFFSET 0.000000 -5.011002 -7.685901
						CHANNELS 3 Xrotation Yrotation Zrotation
						End Site
						{
							OFFSET 0.000000 9.175140 0.000000
						}
					}
				}
				JOINT LHoodieString
				{
					OFFSET 5.250500 16.397697 3.089900
					CHANNELS 3 Xrotation Yrotation Zrotation
					JOINT LHoodieString1
					{
						OFFSET 0.257700 -6.364304 3.694600
						CHANNELS 3 Xrotation Yrotation Zrotation
						JOINT LHoodieString2
						{
							OFFSET 0.000000 -9.643799 2.679100
							CHANNELS 3 Xrotation Yrotation Zrotation
							End Site
							{
								OFFSET 0.000000 10.009018 0.000000
							}
						}
					}
				}
				JOINT RHoodieString
				{
					OFFSET -5.250500 16.397697 3.089900
					CHANNELS 3 Xrotation Yrotation Zrotation
					JOINT RHoodieString1
					{
						OFFSET -0.257700 -6.364304 3.694600
						CHANNELS 3 Xrotation Yrotation Zrotation
						JOINT RHoodieString2
						{
							OFFSET 0.000000 -9.643799 2.679100
							CHANNELS 3 Xrotation Yrotation Zrotation
							End Site
							{
								OFFSET 0.000000 10.009018 0.000000
							}
						}
					}
				}
			}
			JOINT LBackpack_Strap
			{
				OFFSET 15.223200 -7.719803 -6.610900
				CHANNELS 3 Xrotation Yrotation Zrotation
				End Site
				{
					OFFSET 0.000000 16.040596 0.000000
				}
			}
			JOINT RBackpack_Strap
			{
				OFFSET -15.223000 -7.719803 -6.610900
				CHANNELS 3 Xrotation Yrotation Zrotation
				End Site
				{
					OFFSET 0.000000 16.040596 0.000000
				}
			}
		}
	}
	JOINT BoyFacialAnim_Joint
	{
		OFFSET 1.000000 -82.208099 -1.550900
		CHANNELS 3 Xrotation Yrotation Zrotation
		End Site
		{
			OFFSET 0.000000 30.012791 0.000000
		}
	}
}
MOTION
Frames: 4
Frame Time: 0.033333
-1.943745 79.411774 3.450677 4.072286 -20.093158 -0.377277 -0.000000 -0.000001 0.000000 -29.519401 11.701106 20.538847 28.608702 -3.675782 5.801424 -4.695998 1.706459 -18.186897 -0.000000 0.000000 0.000000 -0.000000 0.000000 0.000000 0.000000 -0.000000 0.000000 -22.473832 -9.564249 -15.818983 27.986593 8.515345 -5.983071 -12.370855 -2.299009 14.257742 -0.000000 -0.000002 0.000000 -0.000000 -0.000002 0.000000 -0.000001 -0.000000 -0.000000 5.206216 0.098202 0.655874 3.273437 0.107128 0.563090 3.271814 0.177445 0.552619 -1.785421 3.424625 -2.476418 -14.071167 14.467186 -0.004857 -0.000000 0.000000 -0.000000 -0.000000 0.000000 -0.000000 -0.000000 0.000000 -0.000000 3.564731 -14.926028 -9.799640 -14.505551 -5.111551 -60.885672 -0.000001 -28.658914 0.000015 46.263293 7.880596 5.884758 -1.528054 -2.084213 5.288388 4.850899 19.307765 1.572669 0.000001 -0.000001 -0.000001 0.671841 2.971438 -25.475578 0.097724 1.158260 -9.644382 -0.000000 -0.000000 -0.000004 -16.471206 -17.341589 -42.680404 0.001717 0.153848 -1.274850 0.000002 -0.000003 -0.000002 -16.469896 -17.340117 -42.695977 0.001661 0.151913 -1.258867 -0.000000 -0.000001 0.000003 -13.647317 -14.329199 -41.414965 -0.015051 -3.902353 -1.769709 -0.000001 -0.000001 -0.000000 0.000001 -0.000001 -0.000001 -1.978101 9.192299 11.276864 -0.360223 13.680507 61.084861 0.000006 38.777146 -0.000012 27.421995 11.401285 -1.913989 1.682932 -11.561544 12.585969 5.747767 -21.249775 -1.053397 0.000002 -0.000000 -0.000005 0.840796 -3.319478 28.420060 0.325006 -2.104870 17.552838 0.000003 0.000003 0.000000 0.840806 -3.319476 28.420052 0.325000 -2.104872 17.552843 0.000003 -0.000000 -0.000000 0.840800 -3.319465 28.420053 0.325005 -2.104883 17.552835 -0.000002 0.000003 0.000001 0.840794 -3.319464 28.420055 0.325011 -2.104884 17.552833 0.000001 0.000003 0.000001 0.000000 0.000002 -0.000001 0.000001 -0.000000 -0.000000 0.000001 -0.000000 -0.000000 0.000001 -0.000000 -0.000000 0.000001 -0.000000 -0.000000 0.000001 -0.000000 0.000000 -0.000001 0.000001 -0.000000 0.000001 -0.000000 -0.000000 0.000001 -0.000000 0.000000 -0.000001 0.000001 -0.000000 -0.000000 0.000001 -0.000000 -0.000000 0.000001 -0.000000 -0.000000 -0.000001 0.000000 
-2.076128 79.449074 3.416070 3.791339 -20.122678 -0.458242 -0.000000 0.000000 -0.000000 -29.133004 11.928906 20.612669 28.257075 -3.804694 5.857357 -4.523862 1.677693 -18.170658 0.000000 0.000000 -0.000000 0.000000 0.000000 -0.000000 -0.000000 0.000000 -0.000001 -22.222714 -9.670549 -15.765665 28.044147 8.621342 -5.934315 -12.454449 -2.280148 14.079433 -0.000000 -0.000001 -0.000000 -0.000000 -0.000001 -0.000000 -0.000000 0.000002 -0.000001 5.235820 0.129674 0.618361 3.298172 0.134081 0.544742 3.296124 0.205450 0.533094 -1.772773 3.413065 -2.447769 -13.980435 14.464645 -0.090864 0.000000 -0.000000 0.000000 0.000000 -0.000000 0.000000 0.000000 -0.000000 0.000000 3.546050 -14.866188 -9.767675 -14.674086 -4.953721 -61.032651 0.000012 -28.192764 0.000023 46.255889 7.807767 5.869639 -1.528055 -2.084214 5.288385 4.850900 19.307765 1.572662 0.000002 -0.000001 -0.000004 0.671841 2.971436 -25.475578 0.097723 1.158259 -9.644379 -0.000000 -0.000000 -0.000000 -16.471203 -17.341584 -42.680404 0.001717 0.153846 -1.274852 -0.000000 0.000000 0.000002 -16.469895 -17.340115 -42.695977 0.001663 0.151908 -1.258870 0.000001 0.000001 -0.000000 -13.647316 -14.329199 -41.414961 -0.015050 -3.902351 -1.769709 -0.000001 0.000004 0.000000 0.000002 0.000001 -0.000001 -1.963544 9.210300 11.282428 -0.265625 13.598084 61.036647 0.000003 38.946883 0.000027 27.379532 11.331840 -1.839808 1.682931 -11.561541 12.585969 5.747772 -21.249779 -1.053392 0.000001 -0.000000 -0.000002 0.840796 -3.319483 28.420060 0.325008 -2.104865 17.552840 -0.000001 0.000000 0.000002 0.840811 -3.319474 28.420048 0.325004 -2.104871 17.552843 0.000000 0.000001 0.000002 0.840803 -3.319466 28.420057 0.325001 -2.104878 17.552838 0.000001 -0.000003 -0.000002 0.840790 -3.319464 28.420050 0.325005 -2.104878 17.552830 -0.000002 0.000002 -0.000001 0.000000 0.000000 -0.000001 -0.000001 0.000002 -0.000001 -0.000001 0.000002 -0.000001 -0.000001 0.000002 -0.000001 -0.000001 0.000002 -0.000001 -0.000001 0.000002 -0.000001 -0.000001 0.000000 0.000000 -0.000001 0.000002 -0.000001 -0.000001 0.000002 -0.000001 -0.000001 0.000000 0.000000 0.000000 0.000001 -0.000000 0.000000 0.000001 -0.000000 -0.000000 0.000000 -0.000000 
-2.195534 79.484558 3.360984 3.690711 -20.084767 -0.497252 -0.000000 0.000002 -0.000000 -28.961986 12.020986 20.672220 27.943559 -3.823436 5.849042 -4.304733 1.636804 -18.108300 -0.000000 -0.000000 -0.000000 -0.000000 -0.000000 0.000000 -0.000000 0.000000 0.000000 -22.121847 -9.747879 -15.701114 28.062930 8.636371 -5.868338 -12.494625 -2.262023 13.939521 -0.000000 0.000000 0.000000 -0.000000 0.000000 0.000000 -0.000002 0.000001 0.000002 5.273984 0.157391 0.571140 3.329581 0.158401 0.519835 3.327115 0.230588 0.507105 -1.791359 3.391327 -2.389976 -13.858942 14.436648 -0.178347 0.000000 -0.000000 0.000000 0.000000 -0.000000 0.000000 0.000000 -0.000000 0.000000 3.527338 -14.792110 -9.750447 -14.856554 -4.698633 -61.229210 -0.000000 -27.798318 0.000003 46.258539 7.746882 5.831251 -1.528055 -2.084214 5.288383 4.850899 19.307765 1.572664 0.000002 -0.000001 0.000002 0.671841 2.971436 -25.475579 0.097723 1.158259 -9.644378 -0.000000 -0.000000 -0.000002 -16.471203 -17.341584 -42.680408 0.001717 0.153844 -1.274854 0.000001 -0.000002 -0.000002 -16.469898 -17.340117 -42.695974 0.001663 0.151911 -1.258871 0.000001 -0.000000 -0.000002 -13.647316 -14.329197 -41.414961 -0.015051 -3.902355 -1.769709 0.000001 -0.000002 -0.000001 -0.000001 0.000001 0.000000 -1.949967 9.229273 11.287907 -0.156628 13.534906 60.956658 0.000008 39.069560 -0.000005 27.341515 11.273090 -1.786466 1.682933 -11.561543 12.585967 5.747778 -21.249782 -1.053392 -0.000003 0.000002 -0.000003 0.840794 -3.319478 28.420062 0.325011 -2.104868 17.552843 0.000000 0.000000 0.000000 0.840806 -3.319474 28.420047 0.324996 -2.104875 17.552847 -0.000002 -0.000003 -0.000001 0.840795 -3.319469 28.420053 0.325006 -2.104885 17.552838 0.000002 0.000001 0.000000 0.840792 -3.319465 28.420053 0.325004 -2.104883 17.552830 -0.000000 0.000002 0.000001 0.000000 0.000000 0.000000 0.000001 0.000001 0.000000 0.000001 0.000001 0.000000 0.000001 0.000001 0.000000 0.000001 0.000001 0.000000 0.000001 0.000001 0.000000 0.000001 0.000001 -0.000000 0.000001 0.000001 0.000000 0.000001 0.000001 0.000000 0.000001 0.000001 -0.000000 0.000001 0.000000 -0.000000 0.000001 0.000000 -0.000000 -0.000000 0.000002 -0.000000 
-2.283154 79.492943 3.293553 3.707698 -19.967387 -0.525594 0.000000 0.000001 -0.000000 -28.964933 11.965820 20.701544 27.766778 -3.789485 5.896517 -4.236006 1.639936 -18.257980 -0.000000 -0.000000 -0.000000 -0.000000 -0.000000 0.000000 -0.000000 0.000001 -0.000004 -22.154224 -9.771140 -15.628204 28.157484 8.505847 -5.795803 -12.547786 -2.246645 13.809416 0.000000 0.000000 -0.000000 0.000000 0.000000 -0.000000 0.000001 -0.000000 -0.000003 5.310473 0.185728 0.514128 3.359721 0.183151 0.486842 3.356802 0.255652 0.473057 -1.820857 3.361204 -2.308384 -13.700691 14.388166 -0.262356 0.000000 0.000000 0.000000 0.000000 0.000000 0.000000 0.000000 0.000000 0.000000 3.514280 -14.725379 -9.753613 -15.056744 -4.314605 -61.454770 0.000002 -27.483886 -0.000015 46.285597 7.700880 5.769216 -1.528056 -2.084214 5.288386 4.850895 19.307767 1.572656 0.000001 -0.000001 0.000002 0.671840 2.971436 -25.475578 0.097725 1.158258 -9.644382 0.000001 -0.000000 -0.000002 -16.471206 -17.341587 -42.680401 0.001716 0.153848 -1.274852 0.000001 -0.000001 -0.000000 -16.469902 -17.340115 -42.695980 0.001661 0.151909 -1.258868 -0.000000 -0.000001 -0.000001 -13.647317 -14.329197 -41.414965 -0.015048 -3.902353 -1.769709 0.000001 -0.000001 -0.000000 -0.000001 -0.000003 0.000001 -1.935330 9.259495 11.295102 -0.034451 13.479693 60.856856 0.000001 39.099380 -0.000013 27.308666 11.230309 -1.763245 1.682932 -11.561541 12.585967 5.747768 -21.249779 -1.053393 -0.000001 -0.000001 0.000001 0.840792 -3.319480 28.420064 0.325011 -2.104871 17.552838 -0.000000 -0.000003 0.000001 0.840805 -3.319477 28.420050 0.324999 -2.104870 17.552847 -0.000001 0.000002 0.000004 0.840796 -3.319468 28.420055 0.325002 -2.104879 17.552837 0.000002 -0.000000 0.000000 0.840792 -3.319465 28.420053 0.325007 -2.104882 17.552826 0.000000 -0.000001 -0.000002 0.000000 -0.000002 -0.000000 0.000002 0.000000 0.000000 0.000002 0.000000 0.000000 0.000002 0.000000 0.000000 0.000002 0.000000 0.000000 0.000002 0.000000 0.000001 -0.000000 -0.000000 0.000000 0.000002 0.000000 0.000000 0.000002 0.000000 0.000001 -0.000000 -0.000000 0.000000 0.000001 0.000000 0.000000 0.000001 0.000000 0.000000 0.000000 0.000001 -0.000000 
